<svg version="1.1" id="Layer_1" xmlns="http://www.w3.org/2000/svg" xmlns:xlink="http://www.w3.org/1999/xlink" x="0px" y="0px"
	 width="100%" viewBox="0 0 172 224" enable-background="new 0 0 172 224" xml:space="preserve">
<path fill="#FDFEFE" opacity="1.000000" stroke="none" 
	d="
M1.000000,67.000000 
	C1.000000,44.666672 1.000000,22.833344 1.000000,1.000012 
	C58.333313,1.000008 115.666626,1.000008 172.999954,1.000004 
	C172.999969,75.666634 172.999969,150.333267 172.999985,224.999908 
	C115.666718,224.999939 58.333435,224.999939 1.000076,224.999969 
	C1.000000,172.500000 1.000000,120.000000 1.000000,67.000000 
M53.527275,122.102982 
	C54.325474,118.484749 55.123672,114.866516 55.921871,111.248283 
	C58.859234,119.031029 61.350899,126.664780 62.629299,134.496567 
	C63.615005,140.535248 66.542625,142.145782 72.004402,141.532135 
	C76.206726,141.059982 79.740822,141.503998 82.746109,145.685913 
	C85.545181,149.580856 90.472321,150.025696 95.065605,148.129410 
	C99.667984,146.229370 102.061852,142.642365 102.144493,137.640244 
	C102.226509,132.675095 99.364082,128.418823 94.916168,126.709305 
	C90.108330,124.861458 84.556160,125.983025 81.546074,130.482330 
	C78.927841,134.395920 75.411049,133.606552 72.288834,133.000259 
	C70.951904,132.740646 69.756706,129.641449 69.234581,127.640083 
	C66.001633,115.247719 63.001678,102.794792 59.873421,90.374794 
	C58.756889,85.941879 57.498421,81.544716 56.304745,77.131233 
	C55.837440,77.120850 55.370136,77.110474 54.902836,77.100090 
	C48.885994,105.708260 42.869152,134.316422 36.852306,162.924591 
	C36.386208,162.848007 35.920109,162.771423 35.454010,162.694839 
	C33.320827,154.172638 31.266315,145.629166 28.973326,137.150177 
	C28.611282,135.811401 27.253334,133.835510 26.215857,133.744156 
	C21.928177,133.366653 17.558977,133.333298 13.282114,133.776062 
	C12.030650,133.905609 9.935510,136.191925 10.092224,137.199631 
	C10.326739,138.707642 12.011909,140.264175 13.464005,141.211624 
	C14.420973,141.835999 16.076864,141.613083 17.377363,141.443726 
	C20.837511,140.993088 22.346504,142.377823 23.157085,145.835464 
	C26.270563,159.116501 29.696079,172.324600 33.034100,185.552612 
	C34.130947,189.899231 35.315422,194.223724 36.459827,198.558319 
	C36.827545,198.527344 37.195263,198.496368 37.562984,198.465393 
	C42.803001,173.279221 48.043022,148.093048 53.527275,122.102982 
M160.007034,138.439590 
	C160.611618,120.423042 154.352295,104.774117 142.712738,91.414986 
	C130.635803,77.553848 114.964653,70.031357 96.709740,68.227165 
	C94.920265,68.050308 91.637215,69.899193 91.242088,71.389610 
	C90.385506,74.620735 93.020607,75.745697 96.107605,76.047417 
	C99.384651,76.367699 102.675674,76.955688 105.852875,77.821884 
	C131.773026,84.888458 147.573090,102.100151 151.527618,128.194138 
	C155.309769,153.150604 146.143326,173.958755 124.929268,188.599487 
	C116.002518,194.760208 105.885536,197.881393 95.134552,199.008133 
	C92.504303,199.283783 90.113525,200.466888 91.209236,203.314713 
	C91.806915,204.868103 94.366974,205.864868 96.237381,206.643097 
	C97.119865,207.010269 98.451469,206.162628 99.597656,206.051010 
	C132.545975,202.842194 159.728210,172.861633 160.007034,138.439590 
M125.646751,161.065994 
	C120.119751,168.904144 113.046394,174.740295 103.779091,177.575104 
	C100.459877,178.590424 96.903030,178.898773 93.680016,180.123108 
	C92.450035,180.590347 91.209702,182.708282 91.185326,184.095245 
	C91.168411,185.057541 93.114120,186.680161 94.374161,186.897079 
	C96.430321,187.251083 98.697952,186.950409 100.780571,186.491348 
	C134.384735,179.084137 150.925964,143.169281 134.424637,112.996910 
	C126.207474,97.971985 113.172920,89.551857 96.138222,87.744858 
	C94.532448,87.574509 91.698257,89.376831 91.155907,90.883125 
	C90.169655,93.622299 92.292076,95.013893 95.115097,95.102661 
	C95.926384,95.128166 96.718414,95.529709 97.535347,95.646011 
	C126.552681,99.776993 143.446991,134.144379 125.646751,161.065994 
M103.065552,165.742477 
	C122.716713,155.578125 127.764717,132.529739 113.690361,116.727295 
	C108.898399,111.346954 102.873291,107.792221 95.605545,107.111961 
	C94.120682,106.972977 92.457176,108.742645 90.876022,109.632492 
	C91.938446,111.237335 92.851074,112.978889 94.132950,114.383453 
	C94.688622,114.992310 96.020073,114.857079 96.973709,115.144279 
	C109.186852,118.822395 116.325508,131.086700 112.921173,143.370300 
	C110.401901,152.460373 104.108292,157.875259 94.899742,160.237503 
	C93.227318,160.666519 92.077873,163.134262 90.686996,164.660828 
	C92.657715,165.673630 94.551788,167.246765 96.622307,167.529968 
	C98.425148,167.776566 100.427185,166.566833 103.065552,165.742477 
M80.209167,21.893412 
	C79.965248,25.374846 79.721329,28.856277 79.477409,32.337711 
	C76.646866,29.651886 75.061493,26.600201 72.997993,23.916088 
	C72.187775,22.862192 70.329735,22.294647 68.902924,22.200233 
	C68.375221,22.165316 67.258598,24.098768 67.198563,25.178318 
	C66.986397,28.993912 67.017586,32.832973 67.193687,36.652203 
	C67.230858,37.458138 68.272697,38.217747 68.851624,38.998699 
	C69.342026,38.137325 70.195518,37.300320 70.255272,36.410038 
	C70.440170,33.655174 70.322830,30.880024 70.322830,28.112749 
	C73.324570,30.935713 75.078316,34.238140 77.229912,37.257015 
	C77.919792,38.224972 79.681091,38.887379 80.913734,38.832088 
	C81.610680,38.800827 82.740761,37.053207 82.793816,36.032818 
	C83.009544,31.883839 82.981125,27.712744 82.793633,23.561054 
	C82.760559,22.828718 81.537315,22.150127 80.209167,21.893412 
M21.234077,38.535603 
	C24.681387,38.695999 28.156227,39.163822 31.561859,38.858822 
	C32.845074,38.743896 34.847038,36.947681 34.997360,35.729813 
	C35.429245,32.230755 35.333832,28.604525 34.899776,25.095798 
	C34.756134,23.934645 33.038662,22.201916 31.890886,22.073858 
	C28.342281,21.677938 24.721464,21.929253 20.774210,21.929253 
	C20.774210,27.597174 20.774210,32.680489 21.234077,38.535603 
M47.150585,27.878098 
	C47.148186,28.872940 47.136280,29.867865 47.144917,30.862612 
	C47.206234,37.926556 48.293167,39.043766 55.086666,39.037327 
	C61.747612,39.031010 62.834099,37.865009 62.856312,30.697254 
	C62.858364,30.034031 62.879963,29.369768 62.851635,28.707737 
	C62.711449,25.431890 62.460335,22.340923 58.090294,21.886383 
	C50.422291,21.088816 48.772648,21.794147 47.150585,27.878098 
M105.207062,37.470718 
	C108.053406,37.987698 110.884979,38.616978 113.749771,38.993614 
	C117.441864,39.479015 118.763329,37.497757 118.866211,34.010647 
	C118.995148,29.640039 116.687866,28.635445 112.875565,28.855844 
	C110.662521,28.983784 107.316833,29.877399 108.650192,25.244476 
	C109.457039,25.171165 110.282768,25.159019 111.083572,25.011570 
	C113.466125,24.572880 115.838882,24.080997 118.215469,23.609900 
	C115.781670,23.043865 113.371887,22.316130 110.908356,21.950333 
	C107.362541,21.423834 105.186226,22.608231 105.116447,26.715200 
	C105.045334,30.900835 106.901062,32.461472 110.905937,32.046181 
	C112.366302,31.894749 113.855545,32.021797 115.331604,32.021797 
	C115.611740,32.470287 115.891869,32.918774 116.171997,33.367264 
	C115.161758,34.214245 114.259499,35.559570 113.119270,35.806625 
	C110.582954,36.356190 107.927528,36.356094 105.207062,37.470718 
M138.200836,22.614437 
	C133.231552,22.306316 128.262268,21.998196 123.292976,21.690075 
	C123.144180,22.409670 122.995392,23.129263 122.846596,23.848858 
	C124.891510,24.465347 126.936424,25.081837 129.156540,25.751143 
	C129.156540,29.175905 129.035599,32.643650 129.233063,36.093166 
	C129.289520,37.079613 130.268509,38.013248 130.824493,38.971096 
	C131.310410,37.953854 132.161926,36.955406 132.215363,35.915928 
	C132.392532,32.469341 132.282257,29.007977 132.282257,26.015640 
	C134.488892,25.067533 136.374451,24.257372 138.200836,22.614437 
M100.805077,30.459490 
	C96.607376,29.764359 92.409668,29.069229 88.288887,28.386839 
	C86.550819,38.405193 89.122551,40.243118 100.541405,38.556084 
	C101.821213,34.649734 99.048691,35.370064 96.783325,35.005077 
	C94.714371,34.671738 91.260597,36.901859 90.756340,32.454098 
	C94.197754,32.067284 97.425919,31.704437 100.805077,30.459490 
M42.889816,33.320107 
	C42.887131,30.011930 42.977337,26.698950 42.806629,23.399467 
	C42.770695,22.705011 41.776943,22.060112 41.224533,21.392378 
	C40.709206,22.086805 39.769402,22.768265 39.747730,23.477770 
	C39.611446,27.939640 39.616924,32.409512 39.742886,36.872013 
	C39.763218,37.592289 40.620098,38.288960 41.090275,38.996536 
	C41.688274,38.242840 42.476196,37.566681 42.825371,36.711399 
	C43.115044,36.001869 42.887939,35.081364 42.889816,33.320107 
M95.407303,20.989336 
	C93.581345,20.990288 91.729530,20.812359 89.940834,21.071012 
	C89.102501,21.192240 88.385956,22.155626 87.614220,22.737349 
	C88.337044,23.182339 89.042793,23.974787 89.785683,24.011276 
	C92.766342,24.157675 95.767807,24.199282 98.740524,23.986126 
	C99.582520,23.925753 100.353058,22.868872 101.156364,22.269009 
	C100.994728,21.918716 100.833092,21.568422 100.671455,21.218130 
	C99.220886,21.141865 97.770309,21.065601 95.407303,20.989336 
z"/>
<path fill="#4E8DC9" opacity="1.000000" stroke="none" 
	d="
M53.405159,122.504936 
	C48.043022,148.093048 42.803001,173.279221 37.562984,198.465393 
	C37.195263,198.496368 36.827545,198.527344 36.459827,198.558319 
	C35.315422,194.223724 34.130947,189.899231 33.034100,185.552612 
	C29.696079,172.324600 26.270563,159.116501 23.157085,145.835464 
	C22.346504,142.377823 20.837511,140.993088 17.377363,141.443726 
	C16.076864,141.613083 14.420973,141.835999 13.464005,141.211624 
	C12.011909,140.264175 10.326739,138.707642 10.092224,137.199631 
	C9.935510,136.191925 12.030650,133.905609 13.282114,133.776062 
	C17.558977,133.333298 21.928177,133.366653 26.215857,133.744156 
	C27.253334,133.835510 28.611282,135.811401 28.973326,137.150177 
	C31.266315,145.629166 33.320827,154.172638 35.454010,162.694839 
	C35.920109,162.771423 36.386208,162.848007 36.852306,162.924591 
	C42.869152,134.316422 48.885994,105.708260 54.902836,77.100090 
	C55.370136,77.110474 55.837440,77.120850 56.304745,77.131233 
	C57.498421,81.544716 58.756889,85.941879 59.873421,90.374794 
	C63.001678,102.794792 66.001633,115.247719 69.234581,127.640083 
	C69.756706,129.641449 70.951904,132.740646 72.288834,133.000259 
	C75.411049,133.606552 78.927841,134.395920 81.546074,130.482330 
	C84.556160,125.983025 90.108330,124.861458 94.916168,126.709305 
	C99.364082,128.418823 102.226509,132.675095 102.144493,137.640244 
	C102.061852,142.642365 99.667984,146.229370 95.065605,148.129410 
	C90.472321,150.025696 85.545181,149.580856 82.746109,145.685913 
	C79.740822,141.503998 76.206726,141.059982 72.004402,141.532135 
	C66.542625,142.145782 63.615005,140.535248 62.629299,134.496567 
	C61.350899,126.664780 58.859234,119.031029 55.921871,111.248283 
	C55.123672,114.866516 54.325474,118.484749 53.405159,122.504936 
M96.730927,141.996078 
	C99.636581,135.973633 97.247475,130.435318 91.468903,129.976791 
	C87.732147,129.680267 84.948921,131.304047 83.589256,134.828079 
	C82.218277,138.381409 83.259872,141.511993 86.298676,143.639496 
	C89.748657,146.054855 93.185699,145.709839 96.730927,141.996078 
z"/>
<path fill="#B9DDFE" opacity="1.000000" stroke="none" 
	d="
M160.005737,138.919037 
	C159.728210,172.861633 132.545975,202.842194 99.597656,206.051010 
	C98.451469,206.162628 97.119865,207.010269 96.237381,206.643097 
	C94.366974,205.864868 91.806915,204.868103 91.209236,203.314713 
	C90.113525,200.466888 92.504303,199.283783 95.134552,199.008133 
	C105.885536,197.881393 116.002518,194.760208 124.929268,188.599487 
	C146.143326,173.958755 155.309769,153.150604 151.527618,128.194138 
	C147.573090,102.100151 131.773026,84.888458 105.852875,77.821884 
	C102.675674,76.955688 99.384651,76.367699 96.107605,76.047417 
	C93.020607,75.745697 90.385506,74.620735 91.242088,71.389610 
	C91.637215,69.899193 94.920265,68.050308 96.709740,68.227165 
	C114.964653,70.031357 130.635803,77.553848 142.712738,91.414986 
	C154.352295,104.774117 160.611618,120.423042 160.005737,138.919037 
z"/>
<path fill="#9CCEFD" opacity="1.000000" stroke="none" 
	d="
M125.866646,160.775543 
	C143.446991,134.144379 126.552681,99.776993 97.535347,95.646011 
	C96.718414,95.529709 95.926384,95.128166 95.115097,95.102661 
	C92.292076,95.013893 90.169655,93.622299 91.155907,90.883125 
	C91.698257,89.376831 94.532448,87.574509 96.138222,87.744858 
	C113.172920,89.551857 126.207474,97.971985 134.424637,112.996910 
	C150.925964,143.169281 134.384735,179.084137 100.780571,186.491348 
	C98.697952,186.950409 96.430321,187.251083 94.374161,186.897079 
	C93.114120,186.680161 91.168411,185.057541 91.185326,184.095245 
	C91.209702,182.708282 92.450035,180.590347 93.680016,180.123108 
	C96.903030,178.898773 100.459877,178.590424 103.779091,177.575104 
	C113.046394,174.740295 120.119751,168.904144 125.866646,160.775543 
z"/>
<path fill="#4E8CC9" opacity="1.000000" stroke="none" 
	d="
M102.703377,165.871552 
	C100.427185,166.566833 98.425148,167.776566 96.622307,167.529968 
	C94.551788,167.246765 92.657715,165.673630 90.686996,164.660828 
	C92.077873,163.134262 93.227318,160.666519 94.899742,160.237503 
	C104.108292,157.875259 110.401901,152.460373 112.921173,143.370300 
	C116.325508,131.086700 109.186852,118.822395 96.973709,115.144279 
	C96.020073,114.857079 94.688622,114.992310 94.132950,114.383453 
	C92.851074,112.978889 91.938446,111.237335 90.876022,109.632492 
	C92.457176,108.742645 94.120682,106.972977 95.605545,107.111961 
	C102.873291,107.792221 108.898399,111.346954 113.690361,116.727295 
	C127.764717,132.529739 122.716713,155.578125 102.703377,165.871552 
z"/>
<path fill="#1F1F1F" opacity="1.000000" stroke="none" 
	d="
M80.536438,21.670063 
	C81.537315,22.150127 82.760559,22.828718 82.793633,23.561054 
	C82.981125,27.712744 83.009544,31.883839 82.793816,36.032818 
	C82.740761,37.053207 81.610680,38.800827 80.913734,38.832088 
	C79.681091,38.887379 77.919792,38.224972 77.229912,37.257015 
	C75.078316,34.238140 73.324570,30.935713 70.322830,28.112749 
	C70.322830,30.880024 70.440170,33.655174 70.255272,36.410038 
	C70.195518,37.300320 69.342026,38.137325 68.851624,38.998699 
	C68.272697,38.217747 67.230858,37.458138 67.193687,36.652203 
	C67.017586,32.832973 66.986397,28.993912 67.198563,25.178318 
	C67.258598,24.098768 68.375221,22.165316 68.902924,22.200233 
	C70.329735,22.294647 72.187775,22.862192 72.997993,23.916088 
	C75.061493,26.600201 76.646866,29.651886 79.477409,32.337711 
	C79.721329,28.856277 79.965248,25.374846 80.536438,21.670063 
z"/>
<path fill="#121212" opacity="1.000000" stroke="none" 
	d="
M21.004143,38.149704 
	C20.774210,32.680489 20.774210,27.597174 20.774210,21.929253 
	C24.721464,21.929253 28.342281,21.677938 31.890886,22.073858 
	C33.038662,22.201916 34.756134,23.934645 34.899776,25.095798 
	C35.333832,28.604525 35.429245,32.230755 34.997360,35.729813 
	C34.847038,36.947681 32.845074,38.743896 31.561859,38.858822 
	C28.156227,39.163822 24.681387,38.695999 21.004143,38.149704 
M27.772602,32.005295 
	C27.219025,31.380938 26.665449,30.756578 26.111872,30.132221 
	C26.875347,29.728401 27.630043,29.001081 28.403906,28.980085 
	C30.949249,28.911020 33.219616,28.855843 31.603172,25.322182 
	C28.946993,25.322182 26.384388,25.322182 24.061359,25.322182 
	C24.061359,29.003794 24.061359,32.374973 24.061359,35.916725 
	C25.908558,35.916725 27.431894,36.152977 28.835093,35.843868 
	C30.011091,35.584805 31.046844,34.689102 32.144695,34.075291 
	C30.980923,33.388752 29.817150,32.702217 27.772602,32.005295 
z"/>
<path fill="#141414" opacity="1.000000" stroke="none" 
	d="
M47.181282,27.444803 
	C48.772648,21.794147 50.422291,21.088816 58.090294,21.886383 
	C62.460335,22.340923 62.711449,25.431890 62.851635,28.707737 
	C62.879963,29.369768 62.858364,30.034031 62.856312,30.697254 
	C62.834099,37.865009 61.747612,39.031010 55.086666,39.037327 
	C48.293167,39.043766 47.206234,37.926556 47.144917,30.862612 
	C47.136280,29.867865 47.148186,28.872940 47.181282,27.444803 
M55.434093,25.003796 
	C53.873833,25.100250 52.313576,25.196707 50.242188,25.324760 
	C50.242188,27.572002 50.252113,29.350073 50.239811,31.127991 
	C50.222256,33.665070 49.987728,36.403713 53.872372,35.913765 
	C56.169567,35.624031 60.004990,37.287880 59.588116,32.900593 
	C59.329926,30.183372 62.559093,25.417019 55.434093,25.003796 
z"/>
<path fill="#0C0C0C" opacity="1.000000" stroke="none" 
	d="
M105.263855,37.025375 
	C107.927528,36.356094 110.582954,36.356190 113.119270,35.806625 
	C114.259499,35.559570 115.161758,34.214245 116.171997,33.367264 
	C115.891869,32.918774 115.611740,32.470287 115.331604,32.021797 
	C113.855545,32.021797 112.366302,31.894749 110.905937,32.046181 
	C106.901062,32.461472 105.045334,30.900835 105.116447,26.715200 
	C105.186226,22.608231 107.362541,21.423834 110.908356,21.950333 
	C113.371887,22.316130 115.781670,23.043865 118.215469,23.609901 
	C115.838882,24.080997 113.466125,24.572880 111.083572,25.011570 
	C110.282768,25.159019 109.457039,25.171165 108.650192,25.244476 
	C107.316833,29.877399 110.662521,28.983784 112.875565,28.855844 
	C116.687866,28.635445 118.995148,29.640039 118.866211,34.010647 
	C118.763329,37.497757 117.441864,39.479015 113.749771,38.993614 
	C110.884979,38.616978 108.053406,37.987698 105.263855,37.025375 
z"/>
<path fill="#101010" opacity="1.000000" stroke="none" 
	d="
M138.230438,23.030825 
	C136.374451,24.257372 134.488892,25.067533 132.282257,26.015640 
	C132.282257,29.007977 132.392532,32.469341 132.215363,35.915928 
	C132.161926,36.955406 131.310410,37.953854 130.824493,38.971100 
	C130.268509,38.013248 129.289520,37.079613 129.233063,36.093166 
	C129.035599,32.643650 129.156540,29.175905 129.156540,25.751143 
	C126.936424,25.081837 124.891510,24.465347 122.846596,23.848858 
	C122.995392,23.129263 123.144180,22.409670 123.292976,21.690075 
	C128.262268,21.998196 133.231552,22.306316 138.230438,23.030825 
z"/>
<path fill="#111111" opacity="1.000000" stroke="none" 
	d="
M100.729584,30.900539 
	C97.425919,31.704437 94.197754,32.067284 90.756340,32.454098 
	C91.260597,36.901859 94.714371,34.671738 96.783325,35.005077 
	C99.048691,35.370064 101.821213,34.649734 100.541405,38.556084 
	C89.122551,40.243118 86.550819,38.405193 88.288887,28.386839 
	C92.409668,29.069229 96.607376,29.764359 100.729584,30.900539 
z"/>
<path fill="#1F1F1F" opacity="1.000000" stroke="none" 
	d="
M42.889793,33.787216 
	C42.887939,35.081364 43.115044,36.001869 42.825371,36.711399 
	C42.476196,37.566681 41.688274,38.242840 41.090279,38.996536 
	C40.620098,38.288960 39.763218,37.592289 39.742886,36.872013 
	C39.616924,32.409512 39.611446,27.939640 39.747730,23.477770 
	C39.769402,22.768265 40.709206,22.086805 41.224533,21.392378 
	C41.776943,22.060112 42.770695,22.705011 42.806629,23.399467 
	C42.977337,26.698950 42.887131,30.011930 42.889793,33.787216 
z"/>
<path fill="#070707" opacity="1.000000" stroke="none" 
	d="
M95.863525,20.989338 
	C97.770309,21.065601 99.220886,21.141865 100.671455,21.218130 
	C100.833092,21.568422 100.994728,21.918716 101.156364,22.269009 
	C100.353058,22.868872 99.582520,23.925753 98.740524,23.986126 
	C95.767807,24.199282 92.766342,24.157675 89.785683,24.011276 
	C89.042793,23.974787 88.337044,23.182339 87.614220,22.737347 
	C88.385956,22.155626 89.102501,21.192240 89.940834,21.071012 
	C91.729530,20.812359 93.581345,20.990288 95.863525,20.989338 
z"/>
<path fill="#DBEDFC" opacity="1.000000" stroke="none" 
	d="
M96.459206,142.291534 
	C93.185699,145.709839 89.748657,146.054855 86.298676,143.639496 
	C83.259872,141.511993 82.218277,138.381409 83.589256,134.828079 
	C84.948921,131.304047 87.732147,129.680267 91.468903,129.976791 
	C97.247475,130.435318 99.636581,135.973633 96.459206,142.291534 
z"/>
<path fill="#F6F6F6" opacity="1.000000" stroke="none" 
	d="
M28.212990,32.010487 
	C29.817150,32.702217 30.980923,33.388752 32.144695,34.075291 
	C31.046844,34.689102 30.011091,35.584805 28.835093,35.843868 
	C27.431894,36.152977 25.908558,35.916725 24.061359,35.916725 
	C24.061359,32.374973 24.061359,29.003794 24.061359,25.322182 
	C26.384388,25.322182 28.946993,25.322182 31.603172,25.322182 
	C33.219616,28.855843 30.949249,28.911020 28.403906,28.980085 
	C27.630043,29.001081 26.875347,29.728401 26.111872,30.132221 
	C26.665449,30.756578 27.219025,31.380938 28.212990,32.010487 
z"/>
<path fill="#EDEDED" opacity="1.000000" stroke="none" 
	d="
M55.878578,25.003975 
	C62.559093,25.417019 59.329926,30.183372 59.588116,32.900593 
	C60.004990,37.287880 56.169567,35.624031 53.872372,35.913765 
	C49.987728,36.403713 50.222256,33.665070 50.239811,31.127991 
	C50.252113,29.350073 50.242188,27.572002 50.242188,25.324760 
	C52.313576,25.196707 53.873833,25.100250 55.878578,25.003975 
z"/>
</svg>