<svg version="1.1" id="Layer_1" xmlns="http://www.w3.org/2000/svg" xmlns:xlink="http://www.w3.org/1999/xlink" x="0px" y="0px"
	 width="100%" viewBox="0 0 172 224" enable-background="new 0 0 172 224" xml:space="preserve">
<path fill="#020101" opacity="1.000000" stroke="none" 
	d="
M1.000000,67.000000 
	C1.000000,44.666672 1.000000,22.833344 1.000000,1.000012 
	C58.333313,1.000008 115.666626,1.000008 172.999954,1.000004 
	C172.999969,75.666634 172.999969,150.333267 172.999985,224.999908 
	C115.666718,224.999939 58.333435,224.999939 1.000076,224.999969 
	C1.000000,172.500000 1.000000,120.000000 1.000000,67.000000 
M53.518421,122.100800 
	C54.320744,118.486542 55.123062,114.872276 55.925385,111.258018 
	C58.863125,119.038750 61.352703,126.671242 62.632553,134.501450 
	C63.620094,140.543259 66.554459,142.133713 72.012688,141.517792 
	C76.213501,141.043777 79.716011,141.530411 82.754028,145.677109 
	C85.717896,149.722565 90.817696,150.096802 95.523712,147.929596 
	C100.040047,145.849716 102.254791,142.139725 102.139900,137.139938 
	C102.026627,132.211136 98.974319,128.050781 94.445915,126.538841 
	C89.727623,124.963501 84.430923,126.129829 81.546341,130.484116 
	C78.945442,134.410187 75.415878,133.621902 72.293800,133.006073 
	C70.950737,132.741150 69.755180,129.646194 69.232674,127.643860 
	C65.999451,115.253418 63.000751,102.801987 59.871670,90.384041 
	C58.754501,85.950478 57.491093,81.553772 56.294437,77.140244 
	C55.829159,77.130653 55.363880,77.121063 54.898602,77.111465 
	C51.887859,91.456375 48.883015,105.802521 45.864723,120.145836 
	C42.863911,134.406097 39.849575,148.663498 36.841175,162.922150 
	C36.378651,162.845490 35.916130,162.768845 35.453606,162.692184 
	C33.320286,154.171692 31.265322,145.630020 28.972986,137.152542 
	C28.610256,135.811096 27.258738,133.827606 26.223490,133.736191 
	C21.936104,133.357498 17.566902,133.323715 13.290181,133.766388 
	C12.035957,133.896210 9.938927,136.176468 10.092112,137.189163 
	C10.319778,138.694260 12.006144,140.254395 13.456720,141.201218 
	C14.412457,141.825058 16.068525,141.595261 17.369871,141.427872 
	C20.822004,140.983856 22.343931,142.352081 23.155622,145.816315 
	C26.267063,159.095551 29.692682,172.301422 33.029957,185.527359 
	C34.127167,189.875702 35.311970,194.201965 36.456722,198.538315 
	C36.826530,198.509399 37.196335,198.480484 37.566139,198.451553 
	C42.803696,173.269699 48.041248,148.087845 53.518421,122.100800 
M160.007339,138.439224 
	C160.608871,120.425453 154.354248,104.778687 142.714996,91.418747 
	C130.638458,77.556854 114.976067,70.025711 96.718071,68.231270 
	C94.925537,68.055092 91.639168,69.900284 91.244064,71.390129 
	C90.386200,74.624886 93.035187,75.739525 96.112854,76.045052 
	C99.390388,76.370445 102.683693,76.948059 105.859909,77.817963 
	C131.753204,84.909592 147.579407,102.081978 151.525909,128.193802 
	C155.298325,153.154022 146.139145,173.951202 124.937469,188.595139 
	C116.013741,194.758743 105.894913,197.877350 95.145477,199.008957 
	C92.517952,199.285583 90.122482,200.464691 91.211884,203.311676 
	C91.805435,204.862808 94.370247,205.857910 96.240700,206.635315 
	C97.125587,207.003098 98.457253,206.165359 99.604095,206.052368 
	C132.584702,202.802963 159.711365,172.879288 160.007339,138.439224 
M125.650734,161.069382 
	C118.697487,170.901352 109.451927,177.076187 97.480309,179.221390 
	C94.741127,179.712234 90.157501,179.181274 91.077042,184.144836 
	C91.955116,188.884567 96.098137,186.525925 98.934929,186.898285 
	C99.253693,186.940109 99.596458,186.836166 99.923271,186.774368 
	C113.569908,184.192825 124.202530,176.781448 132.084274,165.655594 
	C145.456863,146.778839 143.636642,121.164429 127.700531,103.432625 
	C119.263756,94.045174 108.452339,88.730171 95.831711,87.652519 
	C94.305801,87.522217 92.591599,89.597099 90.964661,90.649933 
	C92.136612,92.107841 93.175720,93.710945 94.539734,94.958931 
	C95.168320,95.534027 96.425941,95.461174 97.409760,95.602707 
	C126.686356,99.814804 143.397675,134.210892 125.650734,161.069382 
M103.064217,165.738434 
	C122.703560,155.590164 127.754097,132.519653 113.686462,116.731712 
	C108.892822,111.351875 102.872498,107.796158 95.606865,107.112259 
	C94.121773,106.972473 92.456833,108.743492 90.874802,109.633705 
	C91.937721,111.237434 92.851051,112.977798 94.133072,114.381416 
	C94.689514,114.990639 96.019531,114.857735 96.973083,115.145203 
	C109.197128,118.830292 116.329742,131.088745 112.925278,143.363342 
	C110.403534,152.455368 104.114525,157.866150 94.912796,160.237061 
	C93.238556,160.668457 92.087646,163.130920 90.695152,164.655777 
	C92.662834,165.668167 94.553818,167.240692 96.621368,167.523819 
	C98.424530,167.770737 100.426743,166.563995 103.064217,165.738434 
M80.209160,21.896130 
	C79.968079,25.383583 79.726990,28.871035 79.485901,32.358486 
	C76.662361,29.681557 75.075272,26.630873 73.014130,23.943825 
	C72.201988,22.885065 70.308548,22.158798 68.953621,22.225004 
	C68.285797,22.257637 67.283043,24.407343 67.196548,25.652203 
	C66.954765,29.131966 66.988060,32.646606 67.190224,36.131390 
	C67.247322,37.115627 68.258942,38.044487 68.832779,38.998745 
	C69.329880,37.976154 70.171791,36.981060 70.255959,35.925549 
	C70.463753,33.319611 70.324081,30.685968 70.324081,28.063463 
	C73.340782,30.945042 74.948502,34.032124 76.989784,36.799385 
	C77.801521,37.899811 79.541725,38.701733 80.923492,38.808575 
	C81.490555,38.852425 82.719635,36.733006 82.796089,35.542934 
	C83.041092,31.729103 83.014053,27.882505 82.796227,24.065430 
	C82.744514,23.159245 81.538826,22.318914 80.209160,21.896130 
M21.234505,38.535828 
	C24.681784,38.696144 28.170441,39.220703 31.555815,38.836113 
	C32.895435,38.683926 34.853909,36.629501 35.050400,35.232944 
	C35.517338,31.914181 35.361038,28.435116 34.900032,25.097700 
	C34.738197,23.926132 33.038448,22.201942 31.891035,22.073946 
	C28.342485,21.678093 24.721750,21.929342 20.774677,21.929342 
	C20.774677,27.597084 20.774677,32.680412 21.234505,38.535828 
M47.150753,27.878542 
	C47.148327,28.873348 47.136349,29.868238 47.145004,30.862947 
	C47.206497,37.926281 48.293842,39.043816 55.087101,39.037331 
	C61.745632,39.030972 62.834015,37.862793 62.856224,30.696739 
	C62.858280,30.033537 62.879993,29.369284 62.851494,28.707287 
	C62.710503,25.431938 62.459900,22.340658 58.089760,21.886353 
	C50.421494,21.089186 48.773163,21.793936 47.150753,27.878542 
M105.207230,37.470314 
	C108.053520,37.987431 110.885040,38.616879 113.749794,38.993607 
	C117.442635,39.479237 118.763069,37.496113 118.865936,34.009888 
	C118.994911,29.638868 116.685875,28.635258 112.874161,28.855997 
	C110.659988,28.984222 107.316833,29.875332 108.648628,25.244017 
	C109.455719,25.170841 110.281517,25.158947 111.082352,25.011524 
	C113.464775,24.572945 115.837387,24.081081 118.213837,23.610043 
	C115.780441,23.043959 113.371071,22.316227 110.907936,21.950310 
	C107.361084,21.423397 105.186394,22.610264 105.116676,26.716206 
	C105.045593,30.902624 106.903664,32.461288 110.907631,32.046177 
	C112.368057,31.894766 113.857346,32.021797 115.333458,32.021797 
	C115.622803,32.462307 115.912140,32.902817 116.201485,33.343327 
	C115.181740,34.198311 114.271423,35.554298 113.119865,35.805813 
	C110.584824,36.359509 107.927994,36.355560 105.207230,37.470314 
M138.200531,22.614027 
	C133.231262,22.306105 128.261978,21.998184 123.292709,21.690262 
	C123.134354,22.406878 122.976006,23.123493 122.817657,23.840109 
	C124.873856,24.460011 126.930054,25.079910 129.156662,25.751186 
	C129.156662,29.174772 129.035812,32.642719 129.233109,36.092468 
	C129.289520,37.079021 130.267639,38.012863 130.823135,38.970879 
	C131.309296,37.953911 132.161209,36.955753 132.214661,35.916527 
	C132.391907,32.470135 132.281616,29.008957 132.281616,26.015409 
	C134.481079,25.070736 136.369858,24.259495 138.200531,22.614027 
M100.804886,30.459343 
	C96.607346,29.764282 92.409798,29.069221 88.288895,28.386852 
	C86.553146,38.406654 89.122200,40.242680 100.541924,38.556438 
	C101.820549,34.650940 99.049286,35.369820 96.783325,35.005039 
	C94.714294,34.671967 91.260513,36.901909 90.756218,32.454052 
	C94.197510,32.067326 97.425667,31.704548 100.804886,30.459343 
M42.889732,33.319084 
	C42.886986,30.011213 42.977150,26.698534 42.806320,23.399366 
	C42.770386,22.705368 41.775944,22.061001 41.223167,21.393766 
	C40.708595,22.088680 39.770191,22.770668 39.748539,23.480616 
	C39.612484,27.942083 39.617970,32.411533 39.744072,36.873619 
	C39.764408,37.593319 40.622025,38.289360 41.092606,38.996338 
	C41.689774,38.242176 42.476631,37.565327 42.825287,36.709873 
	C43.114582,36.000057 42.887833,35.079918 42.889732,33.319084 
M95.407806,20.989336 
	C93.581886,20.990305 91.730087,20.812401 89.941437,21.071072 
	C89.103172,21.192301 88.386696,22.155712 87.615028,22.737446 
	C88.337646,23.182384 89.043205,23.974762 89.785881,24.011230 
	C92.766502,24.157589 95.767899,24.199234 98.740570,23.986061 
	C99.582581,23.925680 100.353134,22.868767 101.156464,22.268881 
	C100.994850,21.918629 100.833244,21.568377 100.671638,21.218124 
	C99.221046,21.141861 97.770462,21.065599 95.407806,20.989336 
z"/>
<path fill="#B17236" opacity="1.000000" stroke="none" 
	d="
M53.398613,122.503403 
	C48.041248,148.087845 42.803696,173.269699 37.566139,198.451553 
	C37.196335,198.480484 36.826530,198.509399 36.456722,198.538315 
	C35.311970,194.201965 34.127167,189.875702 33.029957,185.527359 
	C29.692682,172.301422 26.267063,159.095551 23.155622,145.816315 
	C22.343931,142.352081 20.822004,140.983856 17.369871,141.427872 
	C16.068525,141.595261 14.412457,141.825058 13.456720,141.201218 
	C12.006144,140.254395 10.319778,138.694260 10.092112,137.189163 
	C9.938927,136.176468 12.035957,133.896210 13.290181,133.766388 
	C17.566902,133.323715 21.936104,133.357498 26.223490,133.736191 
	C27.258738,133.827606 28.610256,135.811096 28.972986,137.152542 
	C31.265322,145.630020 33.320286,154.171692 35.453606,162.692184 
	C35.916130,162.768845 36.378651,162.845490 36.841175,162.922150 
	C39.849575,148.663498 42.863911,134.406097 45.864723,120.145836 
	C48.883015,105.802521 51.887859,91.456375 54.898602,77.111465 
	C55.363880,77.121063 55.829159,77.130653 56.294437,77.140244 
	C57.491093,81.553772 58.754501,85.950478 59.871670,90.384041 
	C63.000751,102.801987 65.999451,115.253418 69.232674,127.643860 
	C69.755180,129.646194 70.950737,132.741150 72.293800,133.006073 
	C75.415878,133.621902 78.945442,134.410187 81.546341,130.484116 
	C84.430923,126.129829 89.727623,124.963501 94.445915,126.538841 
	C98.974319,128.050781 102.026627,132.211136 102.139900,137.139938 
	C102.254791,142.139725 100.040047,145.849716 95.523712,147.929596 
	C90.817696,150.096802 85.717896,149.722565 82.754028,145.677109 
	C79.716011,141.530411 76.213501,141.043777 72.012688,141.517792 
	C66.554459,142.133713 63.620094,140.543259 62.632553,134.501450 
	C61.352703,126.671242 58.863125,119.038750 55.925385,111.258018 
	C55.123062,114.872276 54.320744,118.486542 53.398613,122.503403 
M96.733253,141.998108 
	C98.947830,138.676636 99.232002,135.003082 96.095825,132.580780 
	C94.057037,131.006073 90.441528,129.994354 88.125740,130.694046 
	C86.027458,131.328033 83.496674,134.575211 83.413963,136.755829 
	C83.321869,139.183899 85.229164,142.394043 87.260307,144.027420 
	C90.153954,146.354385 93.564911,145.358383 96.733253,141.998108 
z"/>
<path fill="#462201" opacity="1.000000" stroke="none" 
	d="
M160.005981,138.918549 
	C159.711365,172.879288 132.584702,202.802963 99.604095,206.052368 
	C98.457253,206.165359 97.125587,207.003098 96.240700,206.635315 
	C94.370247,205.857910 91.805435,204.862808 91.211884,203.311676 
	C90.122482,200.464691 92.517952,199.285583 95.145477,199.008957 
	C105.894913,197.877350 116.013741,194.758743 124.937469,188.595139 
	C146.139145,173.951202 155.298325,153.154022 151.525909,128.193802 
	C147.579407,102.081978 131.753204,84.909592 105.859909,77.817963 
	C102.683693,76.948059 99.390388,76.370445 96.112854,76.045052 
	C93.035187,75.739525 90.386200,74.624886 91.244064,71.390129 
	C91.639168,69.900284 94.925537,68.055092 96.718071,68.231270 
	C114.976067,70.025711 130.638458,77.556854 142.714996,91.418747 
	C154.354248,104.778687 160.608871,120.425453 160.005981,138.918549 
z"/>
<path fill="#633102" opacity="1.000000" stroke="none" 
	d="
M125.869431,160.778046 
	C143.397675,134.210892 126.686356,99.814804 97.409760,95.602707 
	C96.425941,95.461174 95.168320,95.534027 94.539734,94.958931 
	C93.175720,93.710945 92.136612,92.107841 90.964661,90.649933 
	C92.591599,89.597099 94.305801,87.522217 95.831711,87.652519 
	C108.452339,88.730171 119.263756,94.045174 127.700531,103.432625 
	C143.636642,121.164429 145.456863,146.778839 132.084274,165.655594 
	C124.202530,176.781448 113.569908,184.192825 99.923271,186.774368 
	C99.596458,186.836166 99.253693,186.940109 98.934929,186.898285 
	C96.098137,186.525925 91.955116,188.884567 91.077042,184.144836 
	C90.157501,179.181274 94.741127,179.712234 97.480309,179.221390 
	C109.451927,177.076187 118.697487,170.901352 125.869431,160.778046 
z"/>
<path fill="#B17336" opacity="1.000000" stroke="none" 
	d="
M102.702614,165.868988 
	C100.426743,166.563995 98.424530,167.770737 96.621368,167.523819 
	C94.553818,167.240692 92.662834,165.668167 90.695152,164.655777 
	C92.087646,163.130920 93.238556,160.668457 94.912796,160.237061 
	C104.114525,157.866150 110.403534,152.455368 112.925278,143.363342 
	C116.329742,131.088745 109.197128,118.830292 96.973083,115.145203 
	C96.019531,114.857735 94.689514,114.990639 94.133072,114.381416 
	C92.851051,112.977798 91.937721,111.237434 90.874802,109.633705 
	C92.456833,108.743492 94.121773,106.972473 95.606865,107.112259 
	C102.872498,107.796158 108.892822,111.351875 113.686462,116.731712 
	C127.754097,132.519653 122.703560,155.590164 102.702614,165.868988 
z"/>
<path fill="#E0E0E0" opacity="1.000000" stroke="none" 
	d="
M80.536545,21.672211 
	C81.538826,22.318914 82.744514,23.159245 82.796227,24.065430 
	C83.014053,27.882505 83.041092,31.729103 82.796089,35.542934 
	C82.719635,36.733006 81.490555,38.852425 80.923492,38.808575 
	C79.541725,38.701733 77.801521,37.899811 76.989784,36.799385 
	C74.948502,34.032124 73.340782,30.945042 70.324081,28.063463 
	C70.324081,30.685968 70.463753,33.319611 70.255959,35.925549 
	C70.171791,36.981060 69.329880,37.976154 68.832779,38.998745 
	C68.258942,38.044487 67.247322,37.115627 67.190224,36.131390 
	C66.988060,32.646606 66.954765,29.131966 67.196548,25.652203 
	C67.283043,24.407343 68.285797,22.257637 68.953621,22.225004 
	C70.308548,22.158798 72.201988,22.885065 73.014130,23.943825 
	C75.075272,26.630873 76.662361,29.681557 79.485901,32.358486 
	C79.726990,28.871035 79.968079,25.383583 80.536545,21.672211 
z"/>
<path fill="#EDEDED" opacity="1.000000" stroke="none" 
	d="
M21.004591,38.149784 
	C20.774677,32.680412 20.774677,27.597084 20.774677,21.929342 
	C24.721750,21.929342 28.342485,21.678093 31.891035,22.073946 
	C33.038448,22.201942 34.738197,23.926132 34.900032,25.097700 
	C35.361038,28.435116 35.517338,31.914181 35.050400,35.232944 
	C34.853909,36.629501 32.895435,38.683926 31.555815,38.836113 
	C28.170441,39.220703 24.681784,38.696144 21.004591,38.149784 
M27.773085,32.005264 
	C27.219358,31.381010 26.665632,30.756758 26.111904,30.132507 
	C26.875319,29.728596 27.630020,29.000952 28.403744,28.980129 
	C30.949717,28.911598 33.218594,28.855192 31.603996,25.321926 
	C28.947876,25.321926 26.385138,25.321926 24.060909,25.321926 
	C24.060909,29.003408 24.060909,32.374691 24.060909,35.916721 
	C25.907949,35.916721 27.431248,36.152889 28.834499,35.843887 
	C30.010674,35.584892 31.046721,34.689541 32.144814,34.075951 
	C30.981174,33.389191 29.817537,32.702431 27.773085,32.005264 
z"/>
<path fill="#EBEBEB" opacity="1.000000" stroke="none" 
	d="
M47.181442,27.445267 
	C48.773163,21.793936 50.421494,21.089186 58.089760,21.886353 
	C62.459900,22.340658 62.710503,25.431938 62.851494,28.707287 
	C62.879993,29.369284 62.858280,30.033537 62.856224,30.696739 
	C62.834015,37.862793 61.745632,39.030972 55.087101,39.037331 
	C48.293842,39.043816 47.206497,37.926281 47.145004,30.862947 
	C47.136349,29.868238 47.148327,28.873348 47.181442,27.445267 
M55.434040,25.003796 
	C53.873852,25.100254 52.313663,25.196712 50.242336,25.324774 
	C50.242336,27.572067 50.252159,29.350101 50.239986,31.127989 
	C50.222622,33.664814 49.987831,36.403576 53.872467,35.913792 
	C56.169746,35.624142 60.004791,37.287422 59.587940,32.900406 
	C59.329750,30.183172 62.558659,25.417076 55.434040,25.003796 
z"/>
<path fill="#F3F3F3" opacity="1.000000" stroke="none" 
	d="
M105.264053,37.024757 
	C107.927994,36.355560 110.584824,36.359509 113.119865,35.805813 
	C114.271423,35.554298 115.181740,34.198311 116.201485,33.343327 
	C115.912140,32.902817 115.622803,32.462307 115.333458,32.021797 
	C113.857346,32.021797 112.368057,31.894766 110.907631,32.046177 
	C106.903664,32.461288 105.045593,30.902624 105.116676,26.716206 
	C105.186394,22.610264 107.361084,21.423397 110.907936,21.950310 
	C113.371071,22.316227 115.780441,23.043959 118.213837,23.610043 
	C115.837387,24.081081 113.464775,24.572945 111.082352,25.011524 
	C110.281517,25.158947 109.455719,25.170841 108.648628,25.244017 
	C107.316833,29.875332 110.659988,28.984222 112.874161,28.855997 
	C116.685875,28.635258 118.994911,29.638868 118.865936,34.009888 
	C118.763069,37.496113 117.442635,39.479237 113.749794,38.993607 
	C110.885040,38.616879 108.053520,37.987431 105.264053,37.024757 
z"/>
<path fill="#EFEFEF" opacity="1.000000" stroke="none" 
	d="
M138.229584,23.031139 
	C136.369858,24.259495 134.481079,25.070736 132.281616,26.015409 
	C132.281616,29.008957 132.391907,32.470135 132.214661,35.916527 
	C132.161209,36.955753 131.309296,37.953911 130.823120,38.970879 
	C130.267639,38.012863 129.289520,37.079021 129.233109,36.092468 
	C129.035812,32.642719 129.156662,29.174772 129.156662,25.751186 
	C126.930054,25.079910 124.873856,24.460011 122.817657,23.840109 
	C122.976006,23.123493 123.134354,22.406878 123.292709,21.690262 
	C128.261978,21.998184 133.231262,22.306105 138.229584,23.031139 
z"/>
<path fill="#EEEEEE" opacity="1.000000" stroke="none" 
	d="
M100.729355,30.900558 
	C97.425667,31.704548 94.197510,32.067326 90.756218,32.454052 
	C91.260513,36.901909 94.714294,34.671967 96.783325,35.005039 
	C99.049286,35.369820 101.820549,34.650940 100.541924,38.556438 
	C89.122200,40.242680 86.553146,38.406654 88.288895,28.386852 
	C92.409798,29.069221 96.607346,29.764282 100.729355,30.900558 
z"/>
<path fill="#E0E0E0" opacity="1.000000" stroke="none" 
	d="
M42.889713,33.786018 
	C42.887833,35.079918 43.114582,36.000057 42.825287,36.709873 
	C42.476631,37.565327 41.689774,38.242176 41.092606,38.996338 
	C40.622025,38.289360 39.764408,37.593319 39.744072,36.873619 
	C39.617970,32.411533 39.612484,27.942083 39.748539,23.480616 
	C39.770191,22.770668 40.708595,22.088680 41.223167,21.393766 
	C41.775944,22.061001 42.770386,22.705368 42.806320,23.399366 
	C42.977150,26.698534 42.886986,30.011213 42.889713,33.786018 
z"/>
<path fill="#F8F8F8" opacity="1.000000" stroke="none" 
	d="
M95.863838,20.989336 
	C97.770462,21.065599 99.221046,21.141861 100.671638,21.218124 
	C100.833244,21.568377 100.994850,21.918629 101.156464,22.268881 
	C100.353134,22.868767 99.582581,23.925680 98.740570,23.986061 
	C95.767899,24.199234 92.766502,24.157589 89.785881,24.011230 
	C89.043205,23.974762 88.337646,23.182384 87.615028,22.737446 
	C88.386696,22.155712 89.103172,21.192301 89.941437,21.071072 
	C91.730087,20.812401 93.581886,20.990305 95.863838,20.989336 
z"/>
<path fill="#241203" opacity="1.000000" stroke="none" 
	d="
M96.462006,142.293976 
	C93.564911,145.358383 90.153954,146.354385 87.260307,144.027420 
	C85.229164,142.394043 83.321869,139.183899 83.413963,136.755829 
	C83.496674,134.575211 86.027458,131.328033 88.125740,130.694046 
	C90.441528,129.994354 94.057037,131.006073 96.095825,132.580780 
	C99.232002,135.003082 98.947830,138.676636 96.462006,142.293976 
z"/>
<path fill="#090909" opacity="1.000000" stroke="none" 
	d="
M28.213491,32.010468 
	C29.817537,32.702431 30.981174,33.389191 32.144814,34.075951 
	C31.046721,34.689541 30.010674,35.584892 28.834499,35.843887 
	C27.431248,36.152889 25.907949,35.916721 24.060909,35.916721 
	C24.060909,32.374691 24.060909,29.003408 24.060909,25.321926 
	C26.385138,25.321926 28.947876,25.321926 31.603996,25.321926 
	C33.218594,28.855192 30.949717,28.911598 28.403744,28.980129 
	C27.630020,29.000952 26.875319,29.728596 26.111904,30.132507 
	C26.665632,30.756758 27.219358,31.381010 28.213491,32.010468 
z"/>
<path fill="#121212" opacity="1.000000" stroke="none" 
	d="
M55.878479,25.003977 
	C62.558659,25.417076 59.329750,30.183172 59.587940,32.900406 
	C60.004791,37.287422 56.169746,35.624142 53.872467,35.913792 
	C49.987831,36.403576 50.222622,33.664814 50.239986,31.127989 
	C50.252159,29.350101 50.242336,27.572067 50.242336,25.324774 
	C52.313663,25.196712 53.873852,25.100254 55.878479,25.003977 
z"/>
</svg>